<svg id="Group_730" data-name="Group 730" xmlns="http://www.w3.org/2000/svg" xmlns:xlink="http://www.w3.org/1999/xlink" width="42" height="42" viewBox="0 0 42 42">
  <defs>
    <linearGradient id="linear-gradient" x1="0.5" x2="0.5" y2="0.997" gradientUnits="objectBoundingBox">
      <stop offset="0" stop-color="#18acfe"/>
      <stop offset="1" stop-color="#0163e0"/>
    </linearGradient>
  </defs>
  <g id="Ellipse_257" data-name="Ellipse 257" fill="none" stroke="#e3e8f1" stroke-width="0.778" stroke-dasharray="0 0">
    <circle cx="21" cy="21" r="21" stroke="none"/>
    <circle cx="21" cy="21" r="20.611" fill="none"/>
  </g>
  <g id="Facebook" transform="translate(6 6)">
    <circle id="bg" cx="13.125" cy="13.125" r="13.125" transform="translate(1.875 1.875)" fill="url(#linear-gradient)"/>
    <path id="f" d="M11.1,7.809H7.449v-2.4a1.876,1.876,0,0,1,2.142-2H11.25V.25A20.739,20.739,0,0,0,8.307,0C5.3,0,3.339,1.775,3.339,4.986V7.809H0v3.7H3.339V20.47a13.682,13.682,0,0,0,4.11,0V11.514h3.064Z" transform="translate(9.375 7.5)" fill="#fff"/>
  </g>
</svg>
