<svg id="Group_731" data-name="Group 731" xmlns="http://www.w3.org/2000/svg" xmlns:xlink="http://www.w3.org/1999/xlink" width="42" height="42" viewBox="0 0 42 42">
  <defs>
    <clipPath id="clip-path">
      <rect id="google_Background_Mask_" data-name="google (Background/Mask)" width="24" height="24" fill="none"/>
    </clipPath>
  </defs>
  <g id="Ellipse_256" data-name="Ellipse 256" fill="none" stroke="#e3e8f1" stroke-width="0.778" stroke-dasharray="0 0">
    <circle cx="21" cy="21" r="21" stroke="none"/>
    <circle cx="21" cy="21" r="20.611" fill="none"/>
  </g>
  <g id="google" transform="translate(9 9)">
    <rect id="google_Background_Mask_2" data-name="google (Background/Mask)" width="24" height="24" fill="none"/>
    <g id="google-2" data-name="google" clip-path="url(#clip-path)">
      <path id="vector" d="M10.06,0H0V3.9H5.9A5.116,5.116,0,0,1,3.714,7.3l-.02.13L6.875,9.848l.22.022a10.164,10.164,0,0,0,3.19-7.723A8.825,8.825,0,0,0,10.06,0Z" transform="translate(12.216 10.086)" fill="#4285f4"/>
      <path id="vector-2" data-name="vector" d="M16.667,5.88,13.286,3.313a6.434,6.434,0,0,1-3.714,1.05A6.438,6.438,0,0,1,3.476,0L3.351.01.043,2.519,0,2.637A10.73,10.73,0,0,0,9.571,8.423,10.334,10.334,0,0,0,16.667,5.88Z" transform="translate(2.643 14.076)" fill="#34a853"/>
      <path id="vector-3" data-name="vector" d="M4.262,4.764a6.669,6.669,0,0,1,.345-2.077L4.6,2.549,1.252,0l-.11.051a10.291,10.291,0,0,0,0,9.427L4.619,6.841A6.347,6.347,0,0,1,4.262,4.764Z" transform="translate(1.501 7.236)" fill="#fbbc05"/>
      <path id="vector-4" data-name="vector" d="M13.714,5.623,16.738,2.73A10.41,10.41,0,0,0,9.571,0,10.73,10.73,0,0,0,0,5.787L3.464,8.423A6.465,6.465,0,0,1,9.571,4.06,6,6,0,0,1,13.714,5.623Z" transform="translate(2.643 1.5)" fill="#eb4335"/>
    </g>
  </g>
</svg>
