<svg id="Iconly_Bold_Close_Square" data-name="Iconly/Bold/Close Square" xmlns="http://www.w3.org/2000/svg" width="16" height="16" viewBox="0 0 16 16">
  <rect id="Iconly_Bold_Close_Square_Background_" data-name="Iconly/Bold/Close Square (Background)" width="16" height="16" fill="none"/>
  <g id="Close_Square" data-name="Close Square" transform="translate(1.333 1.332)">
    <path id="Close_Square-2" data-name="Close Square" d="M9.56,13.333H3.78A3.656,3.656,0,0,1,0,9.394V3.947A3.66,3.66,0,0,1,3.78,0H9.56a3.657,3.657,0,0,1,3.774,3.947V9.394A3.653,3.653,0,0,1,9.56,13.333ZM6.666,7.487h0L7.853,8.666a.552.552,0,0,0,.407.175.582.582,0,0,0,.413-.175.578.578,0,0,0,0-.819L7.487,6.66,8.673,5.473a.583.583,0,0,0-.411-1,.593.593,0,0,0-.415.17L6.666,5.833,5.48,4.647a.594.594,0,0,0-.416-.17.578.578,0,0,0-.411.17.586.586,0,0,0,0,.826L5.84,6.66,4.653,7.841a.584.584,0,0,0,0,.825.591.591,0,0,0,.414.175.582.582,0,0,0,.413-.175L6.666,7.488Z" fill="#b0b5dd"/>
  </g>
</svg>
